<svg width="24" height="24" viewBox="0 0 24 24" fill="none" xmlns="http://www.w3.org/2000/svg">
<path d="M1.44324 17.28V17.2822C1.44324 17.283 1.44369 17.2836 1.44369 17.2844C1.44576 18.5229 2.29252 19.5573 3.43446 19.8671C3.69777 21.7726 5.32036 23.25 7.29712 23.25H12C12.4142 23.25 12.75 22.9142 12.75 22.5C12.75 22.0858 12.4142 21.75 12 21.75H7.29712C6.13682 21.75 5.16654 20.9277 4.93455 19.8356C6.02586 19.4923 6.8247 18.4832 6.8247 17.28V12.984C6.8247 11.5005 5.61766 10.2935 4.13378 10.2935C3.71964 10.2935 3.33168 10.3953 2.9809 10.5632C3.36126 5.91659 7.25697 2.25 12 2.25C14.413 2.25 16.6879 3.19226 18.4036 4.90137C19.9375 6.44156 20.8474 8.43032 21.0205 10.564C20.6693 10.3956 20.281 10.2935 19.8662 10.2935C18.3823 10.2935 17.1753 11.5005 17.1753 12.984V17.28C17.1753 18.7639 18.3823 19.9709 19.8662 19.9709C21.3482 19.9709 22.5538 18.7663 22.5563 17.2844C22.5563 17.2836 22.5568 17.283 22.5568 17.2822V17.28V11.3068C22.5568 8.49426 21.4592 5.84363 19.4641 3.84082C17.4631 1.84753 14.8125 0.75 12 0.75C6.17908 0.75 1.44324 5.48584 1.44324 11.3068V17.28ZM19.8662 18.4709C19.2096 18.4709 18.6753 17.9366 18.6753 17.28V12.984C18.6753 12.3274 19.2096 11.7935 19.8662 11.7935C20.5228 11.7935 21.0568 12.3274 21.0568 12.984V17.28C21.0568 17.9366 20.5228 18.4709 19.8662 18.4709ZM4.13379 11.7935C4.79041 11.7935 5.32471 12.3274 5.32471 12.984V17.28C5.32471 17.9366 4.79041 18.4709 4.13379 18.4709C3.47717 18.4709 2.94324 17.9366 2.94324 17.28V12.984C2.94324 12.3274 3.47717 11.7935 4.13379 11.7935Z" fill="#E4EDF5"/>
</svg>
