<svg width="198" height="46" viewBox="0 0 198 46" fill="none" xmlns="http://www.w3.org/2000/svg">
<path d="M28.2106 12.0028C27.7112 11.8412 27.2562 11.5655 26.882 11.1974C26.5077 10.8294 26.2243 10.3792 26.0543 9.88252L23.7184 2.64471C23.6711 2.50091 23.5797 2.37571 23.4571 2.28694C23.3345 2.19818 23.187 2.15039 23.0356 2.15039C22.8842 2.15039 22.7367 2.19818 22.6141 2.28694C22.4915 2.37571 22.4 2.50091 22.3528 2.64471L19.909 9.88252C19.7412 10.3745 19.4628 10.8215 19.0953 11.1891C18.7277 11.5567 18.2807 11.835 17.7887 12.0028L10.5509 14.4106C10.4071 14.4579 10.2819 14.5494 10.1931 14.672C10.1044 14.7946 10.0566 14.9421 10.0566 15.0935C10.0566 15.2448 10.1044 15.3923 10.1931 15.5149C10.2819 15.6376 10.4071 15.729 10.5509 15.7763L17.7887 18.1841C18.2815 18.3504 18.7292 18.6283 19.097 18.9961C19.4648 19.3639 19.7427 19.8116 19.909 20.3044L22.3168 27.5422C22.3641 27.686 22.4556 27.8112 22.5782 27.9C22.7008 27.9887 22.8483 28.0365 22.9997 28.0365C23.151 28.0365 23.2985 27.9887 23.4211 27.9C23.5437 27.8112 23.6352 27.686 23.6825 27.5422L26.0903 20.3044C26.2602 19.8077 26.5436 19.3575 26.9179 18.9895C27.2922 18.6214 27.7471 18.3457 28.2465 18.1841L35.4484 15.8122C35.5922 15.7649 35.7174 15.6735 35.8062 15.5509C35.8949 15.4283 35.9427 15.2808 35.9427 15.1294C35.9427 14.978 35.8949 14.8305 35.8062 14.7079C35.7174 14.5853 35.5922 14.4939 35.4484 14.4466L28.2106 12.0028ZM27.7578 16.8256C27.0532 17.0607 26.413 17.4565 25.8878 17.9817C25.3627 18.5068 24.9669 19.147 24.7318 19.8516L22.9997 25.041L21.2747 19.8516C21.0374 19.1463 20.6401 18.5055 20.1139 17.9793C19.5877 17.4531 18.9468 17.0558 18.2415 16.8185L13.0522 15.0935L18.2415 13.3613C18.9455 13.1252 19.5852 12.7291 20.1103 12.2041C20.6353 11.679 21.0314 11.0394 21.2675 10.3353L22.9997 5.14596L24.7247 10.3353C24.9619 11.0399 25.3593 11.6798 25.8856 12.2048C26.4119 12.7298 27.0527 13.1257 27.7578 13.3613L32.9472 15.0935L27.7578 16.8256ZM44.7922 33.8169L39.6818 32.1135C39.3658 32.0074 39.0787 31.8296 38.843 31.5939C38.6073 31.3582 38.4294 31.0711 38.3234 30.755L36.6559 25.6447C36.6086 25.5009 36.5172 25.3757 36.3946 25.2869C36.272 25.1982 36.1245 25.1504 35.9731 25.1504C35.8217 25.1504 35.6742 25.1982 35.5516 25.2869C35.429 25.3757 35.3375 25.5009 35.2903 25.6447L33.5868 30.755C33.4808 31.0711 33.303 31.3582 33.0673 31.5939C32.8316 31.8296 32.5444 32.0074 32.2284 32.1135L27.1181 33.8169C26.9743 33.8642 26.8491 33.9556 26.7603 34.0782C26.6716 34.2008 26.6238 34.3483 26.6238 34.4997C26.6238 34.6511 26.6716 34.7986 26.7603 34.9212C26.8491 35.0438 26.9743 35.1353 27.1181 35.1825L32.2284 36.886C32.5444 36.992 32.8316 37.1698 33.0673 37.4055C33.303 37.6412 33.4808 37.9284 33.5868 38.2444L35.2903 43.3547C35.3375 43.4985 35.429 43.6237 35.5516 43.7125C35.6742 43.8012 35.8217 43.849 35.9731 43.849C36.1245 43.849 36.272 43.8012 36.3946 43.7125C36.5172 43.6237 36.6086 43.4985 36.6559 43.3547L38.3522 38.2444C38.4589 37.9276 38.6378 37.64 38.8748 37.4042C39.1119 37.1685 39.4004 36.991 39.7178 36.886L44.7922 35.2185C44.936 35.1712 45.0612 35.0797 45.1499 34.9571C45.2387 34.8345 45.2865 34.687 45.2865 34.5357C45.2865 34.3843 45.2387 34.2368 45.1499 34.1142C45.0612 33.9916 44.936 33.9001 44.7922 33.8528V33.8169ZM39.229 35.5203C38.7002 35.6968 38.2197 35.9939 37.8255 36.3881C37.4313 36.7823 37.1343 37.2628 36.9578 37.7916L35.9372 40.8535L34.9165 37.7916C34.7401 37.2628 34.443 36.7823 34.0488 36.3881C33.6546 35.9939 33.1741 35.6968 32.6453 35.5203L29.5834 34.4997L32.6453 33.4791C33.1741 33.3026 33.6546 33.0055 34.0488 32.6113C34.443 32.2171 34.7401 31.7366 34.9165 31.2078L35.9372 28.146L36.9578 31.2078C37.1343 31.7366 37.4313 32.2171 37.8255 32.6113C38.2197 33.0055 38.7002 33.3026 39.229 33.4791L42.2909 34.4997L39.229 35.5203ZM7.6759 38.2444L9.37934 43.3547C9.4266 43.4985 9.51806 43.6237 9.64067 43.7125C9.76328 43.8012 9.91078 43.849 10.0622 43.849C10.2135 43.849 10.361 43.8012 10.4836 43.7125C10.6062 43.6237 10.6977 43.4985 10.745 43.3547L12.4412 38.2444C12.548 37.9276 12.7269 37.64 12.9639 37.4042C13.2009 37.1685 13.4895 36.991 13.8068 36.886L18.9172 35.2185C19.0609 35.1712 19.1862 35.0797 19.2749 34.9571C19.3637 34.8345 19.4115 34.687 19.4115 34.5357C19.4115 34.3843 19.3637 34.2368 19.2749 34.1142C19.1862 33.9916 19.0609 33.9001 18.9172 33.8528L13.8068 32.1494C13.4908 32.0434 13.2037 31.8655 12.968 31.6298C12.7323 31.3941 12.5544 31.107 12.4484 30.791L10.7809 25.6447C10.7336 25.5009 10.6422 25.3757 10.5196 25.2869C10.397 25.1982 10.2495 25.1504 10.0981 25.1504C9.94672 25.1504 9.79922 25.1982 9.67661 25.2869C9.554 25.3757 9.46254 25.5009 9.41528 25.6447L7.71184 30.755C7.60582 31.0711 7.42797 31.3582 7.19227 31.5939C6.95656 31.8296 6.66942 32.0074 6.3534 32.1135L1.20715 33.8169C1.06335 33.8642 0.938144 33.9556 0.849381 34.0782C0.760618 34.2008 0.71283 34.3483 0.71283 34.4997C0.71283 34.6511 0.760618 34.7986 0.849381 34.9212C0.938144 35.0438 1.06335 35.1353 1.20715 35.1825L6.31746 36.886C6.63349 36.992 6.92063 37.1698 7.15633 37.4055C7.39203 37.6412 7.56988 37.9284 7.6759 38.2444ZM6.77028 33.4791C7.29908 33.3026 7.77958 33.0055 8.17377 32.6113C8.56796 32.2171 8.86505 31.7366 9.04153 31.2078L10.0622 28.146L11.0828 31.2078C11.2593 31.7366 11.5563 32.2171 11.9505 32.6113C12.3447 33.0055 12.8252 33.3026 13.354 33.4791L16.4159 34.4997L13.354 35.5203C12.8252 35.6968 12.3447 35.9939 11.9505 36.3881C11.5563 36.7823 11.2593 37.2628 11.0828 37.7916L10.0622 40.8535L9.04153 37.7916C8.86505 37.2628 8.56796 36.7823 8.17377 36.3881C7.77958 35.9939 7.29908 35.6968 6.77028 35.5203L3.7084 34.4997L6.77028 33.4791Z" fill="#FFC105"/>
<path d="M22.5821 2.50977L25.9705 11.6668L35.1275 15.0552L25.9705 18.4436L22.5821 27.6007L19.1937 18.4436L10.0366 15.0552L19.1937 11.6668L22.5821 2.50977Z" fill="#FFC105"/>
<path d="M10.0363 26.7637L12.2952 32.8684L18.3999 35.1273L12.2952 37.3863L10.0363 43.4909L7.77736 37.3863L1.67267 35.1273L7.77736 32.8684L10.0363 26.7637Z" fill="#FFC105"/>
<path d="M35.1272 25.9277L37.3861 32.0324L43.4908 34.2914L37.3861 36.5503L35.1272 42.655L32.8682 36.5503L26.7635 34.2914L32.8682 32.0324L35.1272 25.9277Z" fill="#FFC105"/>
<path d="M59.856 33.308C58.232 33.308 56.7947 32.9627 55.544 32.272C54.312 31.5813 53.3413 30.6293 52.632 29.416C51.9413 28.184 51.596 26.784 51.596 25.216V13.232H56.02V25.468C56.02 26.252 56.188 26.9333 56.524 27.512C56.86 28.0907 57.3173 28.5387 57.896 28.856C58.4933 29.1547 59.1467 29.304 59.856 29.304C60.6027 29.304 61.256 29.1547 61.816 28.856C62.376 28.5387 62.8147 28.1 63.132 27.54C63.468 26.9613 63.636 26.28 63.636 25.496V13.232H68.06V25.244C68.06 26.812 67.7147 28.2027 67.024 29.416C66.3333 30.6293 65.372 31.5813 64.14 32.272C62.908 32.9627 61.48 33.308 59.856 33.308ZM71.1722 33V12.672H75.4562V33H71.1722ZM80.4049 33V13.764H84.6889V33H80.4049ZM77.3249 23.032V19.392H87.7689V23.032H77.3249ZM89.6565 33V19.392H93.9405V33H89.6565ZM93.9405 25.524L92.1485 24.124C92.5032 22.5373 93.1005 21.3053 93.9405 20.428C94.7805 19.5507 95.9472 19.112 97.4405 19.112C98.0939 19.112 98.6632 19.2147 99.1485 19.42C99.6525 19.6067 100.091 19.9053 100.465 20.316L97.9165 23.536C97.7299 23.3307 97.4965 23.172 97.2165 23.06C96.9365 22.948 96.6192 22.892 96.2645 22.892C95.5552 22.892 94.9859 23.116 94.5565 23.564C94.1459 23.9933 93.9405 24.6467 93.9405 25.524ZM106.907 33.28C105.656 33.28 104.536 32.972 103.547 32.356C102.576 31.74 101.802 30.9 101.223 29.836C100.663 28.772 100.383 27.5587 100.383 26.196C100.383 24.8333 100.663 23.62 101.223 22.556C101.802 21.492 102.576 20.652 103.547 20.036C104.536 19.42 105.656 19.112 106.907 19.112C107.822 19.112 108.643 19.2893 109.371 19.644C110.118 19.9987 110.724 20.4933 111.191 21.128C111.658 21.744 111.919 22.4533 111.975 23.256V29.136C111.919 29.9387 111.658 30.6573 111.191 31.292C110.743 31.908 110.146 32.3933 109.399 32.748C108.652 33.1027 107.822 33.28 106.907 33.28ZM107.775 29.416C108.69 29.416 109.427 29.1173 109.987 28.52C110.547 27.904 110.827 27.1293 110.827 26.196C110.827 25.5613 110.696 25.0013 110.435 24.516C110.192 24.0307 109.838 23.6573 109.371 23.396C108.923 23.116 108.4 22.976 107.803 22.976C107.206 22.976 106.674 23.116 106.207 23.396C105.759 23.6573 105.395 24.0307 105.115 24.516C104.854 25.0013 104.723 25.5613 104.723 26.196C104.723 26.812 104.854 27.3627 105.115 27.848C105.376 28.3333 105.74 28.716 106.207 28.996C106.674 29.276 107.196 29.416 107.775 29.416ZM110.659 33V29.332L111.303 26.028L110.659 22.724V19.392H114.859V33H110.659ZM127.647 33.308C126.173 33.308 124.801 33.056 123.531 32.552C122.281 32.0293 121.179 31.3013 120.227 30.368C119.294 29.4347 118.566 28.352 118.043 27.12C117.521 25.8693 117.259 24.5253 117.259 23.088C117.259 21.6507 117.521 20.316 118.043 19.084C118.566 17.8333 119.294 16.7507 120.227 15.836C121.161 14.9213 122.253 14.212 123.503 13.708C124.773 13.1853 126.145 12.924 127.619 12.924C129.187 12.924 130.578 13.176 131.791 13.68C133.023 14.184 134.097 14.8747 135.011 15.752L132.071 18.72C131.549 18.16 130.914 17.7213 130.167 17.404C129.439 17.0867 128.59 16.928 127.619 16.928C126.761 16.928 125.967 17.0773 125.239 17.376C124.53 17.656 123.914 18.0667 123.391 18.608C122.887 19.1493 122.486 19.8027 122.187 20.568C121.907 21.3333 121.767 22.1733 121.767 23.088C121.767 24.0213 121.907 24.8707 122.187 25.636C122.486 26.4013 122.887 27.0547 123.391 27.596C123.914 28.1373 124.53 28.5573 125.239 28.856C125.967 29.1547 126.761 29.304 127.619 29.304C128.627 29.304 129.505 29.1453 130.251 28.828C130.998 28.5107 131.642 28.072 132.183 27.512L135.151 30.48C134.199 31.3573 133.107 32.048 131.875 32.552C130.662 33.056 129.253 33.308 127.647 33.308ZM137.18 33V12.672H141.464V33H137.18ZM151.201 33.308C149.726 33.308 148.41 33.0093 147.253 32.412C146.114 31.796 145.218 30.9467 144.565 29.864C143.911 28.7813 143.585 27.5587 143.585 26.196C143.585 24.8333 143.902 23.62 144.537 22.556C145.19 21.4733 146.067 20.624 147.169 20.008C148.27 19.392 149.511 19.084 150.893 19.084C152.237 19.084 153.422 19.3733 154.449 19.952C155.475 20.5307 156.278 21.3333 156.857 22.36C157.454 23.3867 157.753 24.5627 157.753 25.888C157.753 26.1307 157.734 26.392 157.697 26.672C157.678 26.9333 157.631 27.2413 157.557 27.596L145.825 27.624V24.684L155.737 24.656L153.889 25.888C153.87 25.104 153.749 24.46 153.525 23.956C153.301 23.4333 152.965 23.0413 152.517 22.78C152.087 22.5 151.555 22.36 150.921 22.36C150.249 22.36 149.661 22.5187 149.157 22.836C148.671 23.1347 148.289 23.564 148.009 24.124C147.747 24.684 147.617 25.3653 147.617 26.168C147.617 26.9707 147.757 27.6613 148.037 28.24C148.335 28.8 148.746 29.2387 149.269 29.556C149.81 29.8547 150.445 30.004 151.173 30.004C151.845 30.004 152.451 29.892 152.993 29.668C153.534 29.4253 154.01 29.0707 154.421 28.604L156.773 30.956C156.101 31.74 155.289 32.328 154.337 32.72C153.385 33.112 152.339 33.308 151.201 33.308ZM165.505 33.28C164.254 33.28 163.134 32.972 162.145 32.356C161.174 31.74 160.399 30.9 159.821 29.836C159.261 28.772 158.981 27.5587 158.981 26.196C158.981 24.8333 159.261 23.62 159.821 22.556C160.399 21.492 161.174 20.652 162.145 20.036C163.134 19.42 164.254 19.112 165.505 19.112C166.419 19.112 167.241 19.2893 167.969 19.644C168.715 19.9987 169.322 20.4933 169.789 21.128C170.255 21.744 170.517 22.4533 170.573 23.256V29.136C170.517 29.9387 170.255 30.6573 169.789 31.292C169.341 31.908 168.743 32.3933 167.997 32.748C167.25 33.1027 166.419 33.28 165.505 33.28ZM166.373 29.416C167.287 29.416 168.025 29.1173 168.585 28.52C169.145 27.904 169.425 27.1293 169.425 26.196C169.425 25.5613 169.294 25.0013 169.033 24.516C168.79 24.0307 168.435 23.6573 167.969 23.396C167.521 23.116 166.998 22.976 166.401 22.976C165.803 22.976 165.271 23.116 164.805 23.396C164.357 23.6573 163.993 24.0307 163.713 24.516C163.451 25.0013 163.321 25.5613 163.321 26.196C163.321 26.812 163.451 27.3627 163.713 27.848C163.974 28.3333 164.338 28.716 164.805 28.996C165.271 29.276 165.794 29.416 166.373 29.416ZM169.257 33V29.332L169.901 26.028L169.257 22.724V19.392H173.457V33H169.257ZM185.461 33V25.244C185.461 24.5347 185.237 23.9653 184.789 23.536C184.36 23.088 183.809 22.864 183.137 22.864C182.67 22.864 182.26 22.9667 181.905 23.172C181.55 23.3587 181.27 23.6387 181.065 24.012C180.86 24.3667 180.757 24.7773 180.757 25.244L179.105 24.432C179.105 23.368 179.338 22.4347 179.805 21.632C180.272 20.8293 180.916 20.2133 181.737 19.784C182.577 19.336 183.52 19.112 184.565 19.112C185.573 19.112 186.46 19.3547 187.225 19.84C188.009 20.3067 188.625 20.932 189.073 21.716C189.521 22.5 189.745 23.3587 189.745 24.292V33H185.461ZM176.473 33V19.392H180.757V33H176.473Z" fill="#01254A"/>
</svg>
