<svg width="204" height="40" viewBox="0 0 204 40" fill="none" xmlns="http://www.w3.org/2000/svg">
<g clip-path="url(#clip0_738_210)">
<path d="M19.9099 3.78174C19.9099 -7.02508 26.6627 8.29394 23.9663 12.9732C26.6675 8.29394 43.3131 6.48286 33.9523 11.8875C43.3131 6.48286 33.4227 20.0004 28.0203 20.0004C33.4227 20.0004 43.3131 33.5106 33.9523 28.1132C43.3131 33.5178 26.6675 31.7068 23.9663 27.0276C26.6675 31.7068 19.9099 47.0258 19.9099 36.219C19.9099 47.0258 13.1547 31.7068 15.8535 27.0276C13.1523 31.7068 -3.49335 33.5178 5.86747 28.1132C-3.49335 33.5178 6.39719 20.0004 11.8018 20.0004C6.39719 20.0004 -3.49335 6.49002 5.86747 11.8875C-3.49335 6.48286 13.1523 8.29394 15.8535 12.9732C13.1547 8.28916 19.9099 -7.02508 19.9099 3.78174Z" fill="#45617D"/>
</g>
<path d="M52.28 30.5V9.5H55.73V30.5H52.28ZM54.65 30.5V27.35H65.63V30.5H54.65ZM74.4261 30.8C73.0261 30.8 71.7561 30.47 70.6161 29.81C69.4761 29.13 68.5661 28.22 67.8861 27.08C67.2261 25.94 66.8961 24.67 66.8961 23.27C66.8961 21.87 67.2261 20.61 67.8861 19.49C68.5661 18.37 69.4761 17.48 70.6161 16.82C71.7561 16.14 73.0261 15.8 74.4261 15.8C75.8461 15.8 77.1261 16.13 78.2661 16.79C79.4061 17.45 80.3061 18.35 80.9661 19.49C81.6461 20.61 81.9861 21.87 81.9861 23.27C81.9861 24.67 81.6461 25.94 80.9661 27.08C80.3061 28.22 79.4061 29.13 78.2661 29.81C77.1261 30.47 75.8461 30.8 74.4261 30.8ZM74.4261 27.62C75.2461 27.62 75.9661 27.44 76.5861 27.08C77.2261 26.7 77.7161 26.18 78.0561 25.52C78.4161 24.86 78.5961 24.11 78.5961 23.27C78.5961 22.43 78.4161 21.69 78.0561 21.05C77.6961 20.41 77.2061 19.91 76.5861 19.55C75.9661 19.17 75.2461 18.98 74.4261 18.98C73.6261 18.98 72.9061 19.17 72.2661 19.55C71.6461 19.91 71.1561 20.41 70.7961 21.05C70.4561 21.69 70.2861 22.43 70.2861 23.27C70.2861 24.11 70.4561 24.86 70.7961 25.52C71.1561 26.18 71.6461 26.7 72.2661 27.08C72.9061 27.44 73.6261 27.62 74.4261 27.62ZM84.7304 30.5V16.1H88.0304V30.5H84.7304ZM88.0304 22.49L86.8904 21.92C86.8904 20.1 87.2904 18.63 88.0904 17.51C88.9104 16.37 90.1404 15.8 91.7804 15.8C92.5004 15.8 93.1504 15.93 93.7304 16.19C94.3104 16.45 94.8504 16.87 95.3504 17.45L93.1904 19.67C92.9304 19.39 92.6404 19.19 92.3204 19.07C92.0004 18.95 91.6304 18.89 91.2104 18.89C90.2904 18.89 89.5304 19.18 88.9304 19.76C88.3304 20.34 88.0304 21.25 88.0304 22.49ZM103.198 30.8C101.758 30.8 100.458 30.48 99.2977 29.84C98.1577 29.18 97.2477 28.28 96.5677 27.14C95.9077 26 95.5777 24.72 95.5777 23.3C95.5777 21.88 95.9077 20.61 96.5677 19.49C97.2277 18.35 98.1177 17.45 99.2377 16.79C100.378 16.13 101.638 15.8 103.018 15.8C104.358 15.8 105.538 16.11 106.558 16.73C107.598 17.35 108.408 18.2 108.988 19.28C109.588 20.36 109.888 21.59 109.888 22.97C109.888 23.21 109.868 23.46 109.828 23.72C109.808 23.96 109.768 24.23 109.708 24.53H97.8877V21.83H107.998L106.768 22.91C106.728 22.03 106.558 21.29 106.258 20.69C105.958 20.09 105.528 19.63 104.968 19.31C104.428 18.99 103.758 18.83 102.958 18.83C102.118 18.83 101.388 19.01 100.768 19.37C100.148 19.73 99.6677 20.24 99.3277 20.9C98.9877 21.54 98.8177 22.31 98.8177 23.21C98.8177 24.11 98.9977 24.9 99.3577 25.58C99.7177 26.26 100.228 26.79 100.888 27.17C101.548 27.53 102.308 27.71 103.168 27.71C103.908 27.71 104.588 27.58 105.208 27.32C105.848 27.06 106.388 26.68 106.828 26.18L108.928 28.31C108.228 29.13 107.378 29.75 106.378 30.17C105.378 30.59 104.318 30.8 103.198 30.8ZM112.533 30.5V8.9H115.833V30.5H112.533ZM125.962 30.5V9.5H129.412V30.5H125.962ZM141.22 30.8C140.12 30.8 139.14 30.57 138.28 30.11C137.42 29.63 136.74 28.98 136.24 28.16C135.76 27.34 135.52 26.41 135.52 25.37V21.23C135.52 20.19 135.77 19.26 136.27 18.44C136.77 17.62 137.45 16.98 138.31 16.52C139.17 16.04 140.14 15.8 141.22 15.8C142.52 15.8 143.69 16.14 144.73 16.82C145.79 17.48 146.62 18.38 147.22 19.52C147.84 20.64 148.15 21.91 148.15 23.33C148.15 24.73 147.84 26 147.22 27.14C146.62 28.26 145.79 29.15 144.73 29.81C143.69 30.47 142.52 30.8 141.22 30.8ZM133.51 36.5V16.1H136.81V19.97L136.24 23.48L136.81 26.96V36.5H133.51ZM140.68 27.68C141.48 27.68 142.18 27.5 142.78 27.14C143.4 26.76 143.88 26.24 144.22 25.58C144.58 24.92 144.76 24.16 144.76 23.3C144.76 22.44 144.58 21.68 144.22 21.02C143.88 20.36 143.4 19.85 142.78 19.49C142.18 19.11 141.48 18.92 140.68 18.92C139.88 18.92 139.17 19.11 138.55 19.49C137.93 19.85 137.45 20.36 137.11 21.02C136.77 21.68 136.6 22.44 136.6 23.3C136.6 24.16 136.77 24.92 137.11 25.58C137.45 26.24 137.93 26.76 138.55 27.14C139.17 27.5 139.88 27.68 140.68 27.68ZM155.622 30.8C154.822 30.8 154.052 30.7 153.312 30.5C152.572 30.28 151.892 29.98 151.272 29.6C150.652 29.2 150.112 28.72 149.652 28.16L151.752 26.06C152.252 26.64 152.822 27.08 153.462 27.38C154.122 27.66 154.862 27.8 155.682 27.8C156.422 27.8 156.982 27.69 157.362 27.47C157.742 27.25 157.932 26.93 157.932 26.51C157.932 26.07 157.752 25.73 157.392 25.49C157.032 25.25 156.562 25.05 155.982 24.89C155.422 24.71 154.822 24.53 154.182 24.35C153.562 24.17 152.962 23.93 152.382 23.63C151.822 23.31 151.362 22.88 151.002 22.34C150.642 21.8 150.462 21.1 150.462 20.24C150.462 19.32 150.672 18.53 151.092 17.87C151.532 17.21 152.142 16.7 152.922 16.34C153.722 15.98 154.672 15.8 155.772 15.8C156.932 15.8 157.952 16.01 158.832 16.43C159.732 16.83 160.482 17.44 161.082 18.26L158.982 20.36C158.562 19.84 158.082 19.45 157.542 19.19C157.002 18.93 156.382 18.8 155.682 18.8C155.022 18.8 154.512 18.9 154.152 19.1C153.792 19.3 153.612 19.59 153.612 19.97C153.612 20.37 153.792 20.68 154.152 20.9C154.512 21.12 154.972 21.31 155.532 21.47C156.112 21.63 156.712 21.81 157.332 22.01C157.972 22.19 158.572 22.45 159.132 22.79C159.712 23.11 160.182 23.55 160.542 24.11C160.902 24.65 161.082 25.36 161.082 26.24C161.082 27.64 160.592 28.75 159.612 29.57C158.632 30.39 157.302 30.8 155.622 30.8ZM169.713 30.8C168.493 30.8 167.403 30.53 166.443 29.99C165.503 29.45 164.763 28.71 164.223 27.77C163.703 26.81 163.443 25.71 163.443 24.47V16.1H166.743V24.32C166.743 25.02 166.853 25.62 167.073 26.12C167.313 26.6 167.653 26.97 168.093 27.23C168.553 27.49 169.093 27.62 169.713 27.62C170.673 27.62 171.403 27.34 171.903 26.78C172.423 26.2 172.683 25.38 172.683 24.32V16.1H175.983V24.47C175.983 25.73 175.713 26.84 175.173 27.8C174.653 28.74 173.923 29.48 172.983 30.02C172.043 30.54 170.953 30.8 169.713 30.8ZM179.301 30.5V16.1H182.601V30.5H179.301ZM188.871 30.5V21.92C188.871 20.96 188.571 20.22 187.971 19.7C187.371 19.16 186.631 18.89 185.751 18.89C185.151 18.89 184.611 19.01 184.131 19.25C183.671 19.49 183.301 19.84 183.021 20.3C182.741 20.74 182.601 21.28 182.601 21.92L181.311 21.2C181.311 20.1 181.551 19.15 182.031 18.35C182.511 17.55 183.161 16.93 183.981 16.49C184.801 16.03 185.721 15.8 186.741 15.8C187.761 15.8 188.681 16.02 189.501 16.46C190.321 16.9 190.971 17.52 191.451 18.32C191.931 19.12 192.171 20.08 192.171 21.2V30.5H188.871ZM198.441 30.5V21.92C198.441 20.96 198.141 20.22 197.541 19.7C196.941 19.16 196.201 18.89 195.321 18.89C194.741 18.89 194.211 19.01 193.731 19.25C193.251 19.49 192.871 19.84 192.591 20.3C192.311 20.74 192.171 21.28 192.171 21.92L190.311 21.2C190.411 20.1 190.731 19.15 191.271 18.35C191.811 17.55 192.501 16.93 193.341 16.49C194.201 16.03 195.141 15.8 196.161 15.8C197.201 15.8 198.141 16.02 198.981 16.46C199.821 16.9 200.491 17.52 200.991 18.32C201.491 19.12 201.741 20.08 201.741 21.2V30.5H198.441Z" fill="#45617D"/>
<defs>
<clipPath id="clip0_738_210">
<rect width="40" height="40" fill="white"/>
</clipPath>
</defs>
</svg>
