<svg width="207" height="40" viewBox="0 0 207 40" fill="none" xmlns="http://www.w3.org/2000/svg">
<ellipse cx="9.64142" cy="9.64144" rx="9.64142" ry="9.64144" fill="#45617D"/>
<ellipse cx="30.3586" cy="30.3582" rx="9.64142" ry="9.64144" fill="#45617D"/>
<path d="M0 20.7168H19.2828C19.2828 31.3664 10.6496 39.9997 0 39.9997V20.7168Z" fill="#45617D"/>
<path d="M20.7172 19.2829C20.7172 8.63325 29.3504 0 40 0V19.2829H20.7172Z" fill="#45617D"/>
<path d="M52.16 30.5V9.41H56.24V30.5H52.16ZM55.16 30.5V26.87H65.9V30.5H55.16ZM74.8391 30.8C73.3791 30.8 72.0591 30.47 70.8791 29.81C69.7191 29.13 68.7891 28.22 68.0891 27.08C67.4091 25.92 67.0691 24.63 67.0691 23.21C67.0691 21.79 67.4091 20.52 68.0891 19.4C68.7691 18.26 69.6991 17.36 70.8791 16.7C72.0591 16.02 73.3691 15.68 74.8091 15.68C76.2891 15.68 77.6091 16.02 78.7691 16.7C79.9491 17.36 80.8791 18.26 81.5591 19.4C82.2391 20.52 82.5791 21.79 82.5791 23.21C82.5791 24.63 82.2391 25.92 81.5591 27.08C80.8791 28.22 79.9491 29.13 78.7691 29.81C77.6091 30.47 76.2991 30.8 74.8391 30.8ZM74.8091 27.14C75.5491 27.14 76.1991 26.98 76.7591 26.66C77.3391 26.32 77.7791 25.86 78.0791 25.28C78.3991 24.68 78.5591 24 78.5591 23.24C78.5591 22.48 78.3991 21.81 78.0791 21.23C77.7591 20.65 77.3191 20.2 76.7591 19.88C76.1991 19.54 75.5491 19.37 74.8091 19.37C74.0891 19.37 73.4491 19.54 72.8891 19.88C72.3291 20.2 71.8891 20.65 71.5691 21.23C71.2491 21.81 71.0891 22.48 71.0891 23.24C71.0891 24 71.2491 24.68 71.5691 25.28C71.8891 25.86 72.3291 26.32 72.8891 26.66C73.4491 26.98 74.0891 27.14 74.8091 27.14ZM85.1091 30.5V16.01H89.0391V30.5H85.1091ZM89.0391 22.49L87.5091 21.47C87.6891 19.69 88.2091 18.29 89.0691 17.27C89.9291 16.23 91.1691 15.71 92.7891 15.71C93.4891 15.71 94.1191 15.83 94.6791 16.07C95.2391 16.29 95.7491 16.66 96.2091 17.18L93.7491 20C93.5291 19.76 93.2591 19.58 92.9391 19.46C92.6391 19.34 92.2891 19.28 91.8891 19.28C91.0491 19.28 90.3591 19.55 89.8191 20.09C89.2991 20.61 89.0391 21.41 89.0391 22.49ZM104.109 30.8C102.589 30.8 101.239 30.48 100.059 29.84C98.8795 29.18 97.9395 28.28 97.2395 27.14C96.5595 26 96.2195 24.7 96.2195 23.24C96.2195 21.8 96.5495 20.52 97.2095 19.4C97.8895 18.26 98.8095 17.36 99.9695 16.7C101.129 16.02 102.419 15.68 103.839 15.68C105.239 15.68 106.469 16 107.529 16.64C108.609 17.26 109.449 18.12 110.049 19.22C110.669 20.3 110.979 21.53 110.979 22.91C110.979 23.17 110.959 23.44 110.919 23.72C110.899 23.98 110.849 24.28 110.769 24.62L98.5895 24.65V21.71L108.939 21.68L107.349 22.91C107.309 22.05 107.149 21.33 106.869 20.75C106.609 20.17 106.219 19.73 105.699 19.43C105.199 19.11 104.579 18.95 103.839 18.95C103.059 18.95 102.379 19.13 101.799 19.49C101.219 19.83 100.769 20.32 100.449 20.96C100.149 21.58 99.9995 22.32 99.9995 23.18C99.9995 24.06 100.159 24.83 100.479 25.49C100.819 26.13 101.299 26.63 101.919 26.99C102.539 27.33 103.259 27.5 104.079 27.5C104.819 27.5 105.489 27.38 106.089 27.14C106.689 26.88 107.209 26.5 107.649 26L109.959 28.31C109.259 29.13 108.399 29.75 107.379 30.17C106.379 30.59 105.289 30.8 104.109 30.8ZM113.41 30.5V8.81H117.34V30.5H113.41ZM127.101 30.5V9.41H131.181V30.5H127.101ZM143.13 30.8C142.09 30.8 141.15 30.59 140.31 30.17C139.47 29.73 138.8 29.14 138.3 28.4C137.8 27.66 137.53 26.81 137.49 25.85V20.72C137.53 19.76 137.8 18.91 138.3 18.17C138.82 17.41 139.49 16.81 140.31 16.37C141.15 15.93 142.09 15.71 143.13 15.71C144.47 15.71 145.67 16.04 146.73 16.7C147.79 17.36 148.62 18.26 149.22 19.4C149.84 20.54 150.15 21.83 150.15 23.27C150.15 24.69 149.84 25.97 149.22 27.11C148.62 28.25 147.79 29.15 146.73 29.81C145.67 30.47 144.47 30.8 143.13 30.8ZM135.09 36.56V16.01H139.02V19.82L138.36 23.33L138.99 26.84V36.56H135.09ZM142.44 27.17C143.16 27.17 143.8 27.01 144.36 26.69C144.92 26.35 145.35 25.89 145.65 25.31C145.97 24.71 146.13 24.02 146.13 23.24C146.13 22.48 145.97 21.81 145.65 21.23C145.35 20.63 144.92 20.17 144.36 19.85C143.8 19.51 143.16 19.34 142.44 19.34C141.74 19.34 141.11 19.51 140.55 19.85C139.99 20.17 139.55 20.63 139.23 21.23C138.93 21.81 138.78 22.48 138.78 23.24C138.78 24.02 138.93 24.71 139.23 25.31C139.55 25.89 139.98 26.35 140.52 26.69C141.08 27.01 141.72 27.17 142.44 27.17ZM157.706 30.83C156.886 30.83 156.076 30.72 155.276 30.5C154.496 30.28 153.776 29.98 153.116 29.6C152.456 29.2 151.886 28.72 151.406 28.16L153.746 25.79C154.246 26.35 154.826 26.77 155.486 27.05C156.146 27.33 156.876 27.47 157.676 27.47C158.316 27.47 158.796 27.38 159.116 27.2C159.456 27.02 159.626 26.75 159.626 26.39C159.626 25.99 159.446 25.68 159.086 25.46C158.746 25.24 158.296 25.06 157.736 24.92C157.176 24.76 156.586 24.59 155.966 24.41C155.366 24.21 154.786 23.96 154.226 23.66C153.666 23.34 153.206 22.91 152.846 22.37C152.506 21.81 152.336 21.09 152.336 20.21C152.336 19.29 152.556 18.49 152.996 17.81C153.456 17.13 154.106 16.6 154.946 16.22C155.786 15.84 156.776 15.65 157.916 15.65C159.116 15.65 160.196 15.86 161.156 16.28C162.136 16.7 162.946 17.33 163.586 18.17L161.216 20.54C160.776 20 160.276 19.61 159.716 19.37C159.176 19.13 158.586 19.01 157.946 19.01C157.366 19.01 156.916 19.1 156.596 19.28C156.296 19.46 156.146 19.71 156.146 20.03C156.146 20.39 156.316 20.67 156.656 20.87C157.016 21.07 157.476 21.25 158.036 21.41C158.596 21.55 159.176 21.72 159.776 21.92C160.396 22.1 160.976 22.36 161.516 22.7C162.076 23.04 162.526 23.49 162.866 24.05C163.226 24.61 163.406 25.33 163.406 26.21C163.406 27.63 162.896 28.76 161.876 29.6C160.856 30.42 159.466 30.83 157.706 30.83ZM172.236 30.8C170.956 30.8 169.816 30.53 168.816 29.99C167.836 29.45 167.066 28.7 166.506 27.74C165.946 26.78 165.666 25.67 165.666 24.41V16.01H169.626V24.32C169.626 24.92 169.726 25.44 169.926 25.88C170.126 26.3 170.426 26.62 170.826 26.84C171.226 27.06 171.696 27.17 172.236 27.17C173.056 27.17 173.696 26.92 174.156 26.42C174.616 25.92 174.846 25.22 174.846 24.32V16.01H178.776V24.41C178.776 25.69 178.496 26.81 177.936 27.77C177.396 28.73 176.626 29.48 175.626 30.02C174.646 30.54 173.516 30.8 172.236 30.8ZM181.906 30.5V16.01H185.836V30.5H181.906ZM191.356 30.5V21.95C191.356 21.11 191.086 20.46 190.546 20C190.026 19.52 189.376 19.28 188.596 19.28C188.076 19.28 187.606 19.39 187.186 19.61C186.766 19.81 186.436 20.11 186.196 20.51C185.956 20.91 185.836 21.39 185.836 21.95L184.306 21.2C184.306 20.08 184.546 19.11 185.026 18.29C185.526 17.47 186.196 16.84 187.036 16.4C187.876 15.94 188.826 15.71 189.886 15.71C190.886 15.71 191.796 15.94 192.616 16.4C193.436 16.84 194.086 17.47 194.566 18.29C195.046 19.09 195.286 20.06 195.286 21.2V30.5H191.356ZM200.806 30.5V21.95C200.806 21.11 200.536 20.46 199.996 20C199.476 19.52 198.826 19.28 198.046 19.28C197.546 19.28 197.076 19.39 196.636 19.61C196.216 19.81 195.886 20.11 195.646 20.51C195.406 20.91 195.286 21.39 195.286 21.95L193.036 21.41C193.116 20.25 193.426 19.25 193.966 18.41C194.506 17.55 195.216 16.89 196.096 16.43C196.976 15.95 197.956 15.71 199.036 15.71C200.116 15.71 201.086 15.94 201.946 16.4C202.806 16.84 203.486 17.48 203.986 18.32C204.486 19.16 204.736 20.16 204.736 21.32V30.5H200.806Z" fill="#45617D"/>
</svg>
