<svg width="196" height="40" viewBox="0 0 196 40" fill="none" xmlns="http://www.w3.org/2000/svg">
<g clip-path="url(#clip0_738_203)">
<path fill-rule="evenodd" clip-rule="evenodd" d="M20 6.72898C18.5548 6.72898 17.3832 7.90056 17.3832 9.3458H10.6542C10.6542 4.18426 14.8385 0 20 0C25.1616 0 29.3458 4.18426 29.3458 9.3458C29.3458 14.5073 25.1616 18.6916 20 18.6916V11.9626C21.4452 11.9626 22.6168 10.791 22.6168 9.3458C22.6168 7.90056 21.4452 6.72898 20 6.72898ZM33.271 20C33.271 18.5548 32.0994 17.3832 30.6542 17.3832V10.6542C35.8158 10.6542 40 14.8385 40 20C40 25.1616 35.8158 29.3458 30.6542 29.3458C25.4926 29.3458 21.3084 25.1616 21.3084 20H28.0374C28.0374 21.4452 29.209 22.6168 30.6542 22.6168C32.0994 22.6168 33.271 21.4452 33.271 20ZM9.3458 22.6168C7.90056 22.6168 6.72898 21.4452 6.72898 20C6.72898 18.5548 7.90056 17.3832 9.3458 17.3832C10.791 17.3832 11.9626 18.5548 11.9626 20H18.6916C18.6916 14.8385 14.5073 10.6542 9.3458 10.6542C4.18426 10.6542 0 14.8385 0 20C0 25.1616 4.18426 29.3458 9.3458 29.3458V22.6168ZM20 33.271C21.4452 33.271 22.6168 32.0994 22.6168 30.6542H29.3458C29.3458 35.8158 25.1616 40 20 40C14.8385 40 10.6542 35.8158 10.6542 30.6542C10.6542 25.4926 14.8385 21.3084 20 21.3084V28.0374C18.5548 28.0374 17.3832 29.209 17.3832 30.6542C17.3832 32.0994 18.5548 33.271 20 33.271Z" fill="#45617D"/>
</g>
<path d="M52.28 30.5V9.5H55.73V30.5H52.28ZM54.65 30.5V27.35H65.63V30.5H54.65ZM74.4261 30.8C73.0261 30.8 71.7561 30.47 70.6161 29.81C69.4761 29.13 68.5661 28.22 67.8861 27.08C67.2261 25.94 66.8961 24.67 66.8961 23.27C66.8961 21.87 67.2261 20.61 67.8861 19.49C68.5661 18.37 69.4761 17.48 70.6161 16.82C71.7561 16.14 73.0261 15.8 74.4261 15.8C75.8461 15.8 77.1261 16.13 78.2661 16.79C79.4061 17.45 80.3061 18.35 80.9661 19.49C81.6461 20.61 81.9861 21.87 81.9861 23.27C81.9861 24.67 81.6461 25.94 80.9661 27.08C80.3061 28.22 79.4061 29.13 78.2661 29.81C77.1261 30.47 75.8461 30.8 74.4261 30.8ZM74.4261 27.62C75.2461 27.62 75.9661 27.44 76.5861 27.08C77.2261 26.7 77.7161 26.18 78.0561 25.52C78.4161 24.86 78.5961 24.11 78.5961 23.27C78.5961 22.43 78.4161 21.69 78.0561 21.05C77.6961 20.41 77.2061 19.91 76.5861 19.55C75.9661 19.17 75.2461 18.98 74.4261 18.98C73.6261 18.98 72.9061 19.17 72.2661 19.55C71.6461 19.91 71.1561 20.41 70.7961 21.05C70.4561 21.69 70.2861 22.43 70.2861 23.27C70.2861 24.11 70.4561 24.86 70.7961 25.52C71.1561 26.18 71.6461 26.7 72.2661 27.08C72.9061 27.44 73.6261 27.62 74.4261 27.62ZM90.7304 36.8C89.2104 36.8 87.8804 36.52 86.7404 35.96C85.6004 35.42 84.6804 34.65 83.9804 33.65L86.1404 31.49C86.7204 32.21 87.3804 32.75 88.1204 33.11C88.8604 33.47 89.7504 33.65 90.7904 33.65C92.0904 33.65 93.1204 33.31 93.8804 32.63C94.6404 31.97 95.0204 31.06 95.0204 29.9V26.36L95.5904 23.18L95.0204 19.97V16.1H98.3204V29.9C98.3204 31.28 98.0004 32.48 97.3604 33.5C96.7204 34.54 95.8304 35.35 94.6904 35.93C93.5504 36.51 92.2304 36.8 90.7304 36.8ZM90.5804 30.2C89.3004 30.2 88.1404 29.89 87.1004 29.27C86.0804 28.63 85.2704 27.76 84.6704 26.66C84.0904 25.56 83.8004 24.33 83.8004 22.97C83.8004 21.61 84.0904 20.39 84.6704 19.31C85.2704 18.23 86.0804 17.38 87.1004 16.76C88.1404 16.12 89.3004 15.8 90.5804 15.8C91.7204 15.8 92.7204 16.03 93.5804 16.49C94.4404 16.95 95.1104 17.59 95.5904 18.41C96.0704 19.21 96.3104 20.15 96.3104 21.23V24.77C96.3104 25.83 96.0604 26.77 95.5604 27.59C95.0804 28.41 94.4104 29.05 93.5504 29.51C92.6904 29.97 91.7004 30.2 90.5804 30.2ZM91.2404 27.08C92.0404 27.08 92.7404 26.91 93.3404 26.57C93.9404 26.23 94.4004 25.76 94.7204 25.16C95.0604 24.54 95.2304 23.82 95.2304 23C95.2304 22.18 95.0604 21.47 94.7204 20.87C94.4004 20.25 93.9404 19.77 93.3404 19.43C92.7404 19.09 92.0404 18.92 91.2404 18.92C90.4404 18.92 89.7304 19.09 89.1104 19.43C88.5104 19.77 88.0404 20.25 87.7004 20.87C87.3604 21.47 87.1904 22.18 87.1904 23C87.1904 23.8 87.3604 24.51 87.7004 25.13C88.0404 25.75 88.5104 26.23 89.1104 26.57C89.7304 26.91 90.4404 27.08 91.2404 27.08ZM108.586 30.8C107.186 30.8 105.916 30.47 104.776 29.81C103.636 29.13 102.726 28.22 102.046 27.08C101.386 25.94 101.056 24.67 101.056 23.27C101.056 21.87 101.386 20.61 102.046 19.49C102.726 18.37 103.636 17.48 104.776 16.82C105.916 16.14 107.186 15.8 108.586 15.8C110.006 15.8 111.286 16.13 112.426 16.79C113.566 17.45 114.466 18.35 115.126 19.49C115.806 20.61 116.146 21.87 116.146 23.27C116.146 24.67 115.806 25.94 115.126 27.08C114.466 28.22 113.566 29.13 112.426 29.81C111.286 30.47 110.006 30.8 108.586 30.8ZM108.586 27.62C109.406 27.62 110.126 27.44 110.746 27.08C111.386 26.7 111.876 26.18 112.216 25.52C112.576 24.86 112.756 24.11 112.756 23.27C112.756 22.43 112.576 21.69 112.216 21.05C111.856 20.41 111.366 19.91 110.746 19.55C110.126 19.17 109.406 18.98 108.586 18.98C107.786 18.98 107.066 19.17 106.426 19.55C105.806 19.91 105.316 20.41 104.956 21.05C104.616 21.69 104.446 22.43 104.446 23.27C104.446 24.11 104.616 24.86 104.956 25.52C105.316 26.18 105.806 26.7 106.426 27.08C107.066 27.44 107.786 27.62 108.586 27.62ZM118.921 30.5V16.1H122.221V30.5H118.921ZM120.571 13.46C120.011 13.46 119.541 13.27 119.161 12.89C118.801 12.51 118.621 12.04 118.621 11.48C118.621 10.92 118.801 10.45 119.161 10.07C119.541 9.69 120.011 9.5 120.571 9.5C121.151 9.5 121.621 9.69 121.981 10.07C122.341 10.45 122.521 10.92 122.521 11.48C122.521 12.04 122.341 12.51 121.981 12.89C121.621 13.27 121.151 13.46 120.571 13.46ZM133.632 30.8C132.532 30.8 131.552 30.57 130.692 30.11C129.832 29.63 129.152 28.98 128.652 28.16C128.172 27.34 127.932 26.41 127.932 25.37V21.23C127.932 20.19 128.182 19.26 128.682 18.44C129.182 17.62 129.862 16.98 130.722 16.52C131.582 16.04 132.552 15.8 133.632 15.8C134.932 15.8 136.102 16.14 137.142 16.82C138.202 17.48 139.032 18.38 139.632 19.52C140.252 20.64 140.562 21.91 140.562 23.33C140.562 24.73 140.252 26 139.632 27.14C139.032 28.26 138.202 29.15 137.142 29.81C136.102 30.47 134.932 30.8 133.632 30.8ZM125.922 36.5V16.1H129.222V19.97L128.652 23.48L129.222 26.96V36.5H125.922ZM133.092 27.68C133.892 27.68 134.592 27.5 135.192 27.14C135.812 26.76 136.292 26.24 136.632 25.58C136.992 24.92 137.172 24.16 137.172 23.3C137.172 22.44 136.992 21.68 136.632 21.02C136.292 20.36 135.812 19.85 135.192 19.49C134.592 19.11 133.892 18.92 133.092 18.92C132.292 18.92 131.582 19.11 130.962 19.49C130.342 19.85 129.862 20.36 129.522 21.02C129.182 21.68 129.012 22.44 129.012 23.3C129.012 24.16 129.182 24.92 129.522 25.58C129.862 26.24 130.342 26.76 130.962 27.14C131.582 27.5 132.292 27.68 133.092 27.68ZM148.034 30.8C147.234 30.8 146.464 30.7 145.724 30.5C144.984 30.28 144.304 29.98 143.684 29.6C143.064 29.2 142.524 28.72 142.064 28.16L144.164 26.06C144.664 26.64 145.234 27.08 145.874 27.38C146.534 27.66 147.274 27.8 148.094 27.8C148.834 27.8 149.394 27.69 149.774 27.47C150.154 27.25 150.344 26.93 150.344 26.51C150.344 26.07 150.164 25.73 149.804 25.49C149.444 25.25 148.974 25.05 148.394 24.89C147.834 24.71 147.234 24.53 146.594 24.35C145.974 24.17 145.374 23.93 144.794 23.63C144.234 23.31 143.774 22.88 143.414 22.34C143.054 21.8 142.874 21.1 142.874 20.24C142.874 19.32 143.084 18.53 143.504 17.87C143.944 17.21 144.554 16.7 145.334 16.34C146.134 15.98 147.084 15.8 148.184 15.8C149.344 15.8 150.364 16.01 151.244 16.43C152.144 16.83 152.894 17.44 153.494 18.26L151.394 20.36C150.974 19.84 150.494 19.45 149.954 19.19C149.414 18.93 148.794 18.8 148.094 18.8C147.434 18.8 146.924 18.9 146.564 19.1C146.204 19.3 146.024 19.59 146.024 19.97C146.024 20.37 146.204 20.68 146.564 20.9C146.924 21.12 147.384 21.31 147.944 21.47C148.524 21.63 149.124 21.81 149.744 22.01C150.384 22.19 150.984 22.45 151.544 22.79C152.124 23.11 152.594 23.55 152.954 24.11C153.314 24.65 153.494 25.36 153.494 26.24C153.494 27.64 153.004 28.75 152.024 29.57C151.044 30.39 149.714 30.8 148.034 30.8ZM162.125 30.8C160.905 30.8 159.815 30.53 158.855 29.99C157.915 29.45 157.175 28.71 156.635 27.77C156.115 26.81 155.855 25.71 155.855 24.47V16.1H159.155V24.32C159.155 25.02 159.265 25.62 159.485 26.12C159.725 26.6 160.065 26.97 160.505 27.23C160.965 27.49 161.505 27.62 162.125 27.62C163.085 27.62 163.815 27.34 164.315 26.78C164.835 26.2 165.095 25.38 165.095 24.32V16.1H168.395V24.47C168.395 25.73 168.125 26.84 167.585 27.8C167.065 28.74 166.335 29.48 165.395 30.02C164.455 30.54 163.365 30.8 162.125 30.8ZM171.713 30.5V16.1H175.013V30.5H171.713ZM181.283 30.5V21.92C181.283 20.96 180.983 20.22 180.383 19.7C179.783 19.16 179.043 18.89 178.163 18.89C177.563 18.89 177.023 19.01 176.543 19.25C176.083 19.49 175.713 19.84 175.433 20.3C175.153 20.74 175.013 21.28 175.013 21.92L173.723 21.2C173.723 20.1 173.963 19.15 174.443 18.35C174.923 17.55 175.573 16.93 176.393 16.49C177.213 16.03 178.133 15.8 179.153 15.8C180.173 15.8 181.093 16.02 181.913 16.46C182.733 16.9 183.383 17.52 183.863 18.32C184.343 19.12 184.583 20.08 184.583 21.2V30.5H181.283ZM190.853 30.5V21.92C190.853 20.96 190.553 20.22 189.953 19.7C189.353 19.16 188.613 18.89 187.733 18.89C187.153 18.89 186.623 19.01 186.143 19.25C185.663 19.49 185.283 19.84 185.003 20.3C184.723 20.74 184.583 21.28 184.583 21.92L182.723 21.2C182.823 20.1 183.143 19.15 183.683 18.35C184.223 17.55 184.913 16.93 185.753 16.49C186.613 16.03 187.553 15.8 188.573 15.8C189.613 15.8 190.553 16.02 191.393 16.46C192.233 16.9 192.903 17.52 193.403 18.32C193.903 19.12 194.153 20.08 194.153 21.2V30.5H190.853Z" fill="#45617D"/>
<defs>
<clipPath id="clip0_738_203">
<rect width="40" height="40" fill="white"/>
</clipPath>
</defs>
</svg>
