<svg width="16" height="16" viewBox="0 0 16 16" fill="none" xmlns="http://www.w3.org/2000/svg">
<g clip-path="url(#clip0_738_484)">
<path d="M11.5 15.5H4.5C3.43913 15.5 2.42172 15.0786 1.67157 14.3284C0.921427 13.5783 0.5 12.5609 0.5 11.5V4.5C0.5 3.43913 0.921427 2.42172 1.67157 1.67157C2.42172 0.921427 3.43913 0.5 4.5 0.5H11.5C12.5609 0.5 13.5783 0.921427 14.3284 1.67157C15.0786 2.42172 15.5 3.43913 15.5 4.5V11.5C15.5 12.5609 15.0786 13.5783 14.3284 14.3284C13.5783 15.0786 12.5609 15.5 11.5 15.5Z" stroke="#01254A" stroke-miterlimit="10"/>
<path d="M8 11.5C9.933 11.5 11.5 9.933 11.5 8C11.5 6.067 9.933 4.5 8 4.5C6.067 4.5 4.5 6.067 4.5 8C4.5 9.933 6.067 11.5 8 11.5Z" stroke="#01254A" stroke-miterlimit="10"/>
<path d="M12.5 4C12.7761 4 13 3.77614 13 3.5C13 3.22386 12.7761 3 12.5 3C12.2239 3 12 3.22386 12 3.5C12 3.77614 12.2239 4 12.5 4Z" stroke="#01254A" stroke-miterlimit="10"/>
</g>
<defs>
<clipPath id="clip0_738_484">
<rect width="16" height="16" fill="white"/>
</clipPath>
</defs>
</svg>
