<svg width="32" height="32" viewBox="0 0 32 32" fill="none" xmlns="http://www.w3.org/2000/svg">
<path d="M28 13.334C28 22.6673 16 30.6673 16 30.6673C16 30.6673 4 22.6673 4 13.334C4 10.1514 5.26428 7.09914 7.51472 4.8487C9.76516 2.59827 12.8174 1.33398 16 1.33398C19.1826 1.33398 22.2348 2.59827 24.4853 4.8487C26.7357 7.09914 28 10.1514 28 13.334Z" stroke="#2E4D6C" stroke-width="2" stroke-linecap="round" stroke-linejoin="round"/>
<path d="M16 17.334C18.2091 17.334 20 15.5431 20 13.334C20 11.1248 18.2091 9.33398 16 9.33398C13.7909 9.33398 12 11.1248 12 13.334C12 15.5431 13.7909 17.334 16 17.334Z" stroke="#2E4D6C" stroke-width="2" stroke-linecap="round" stroke-linejoin="round"/>
</svg>
