<svg width="32" height="32" viewBox="0 0 32 32" fill="none" xmlns="http://www.w3.org/2000/svg">
<path d="M29.3329 22.5595V26.5595C29.3344 26.9308 29.2584 27.2984 29.1096 27.6386C28.9608 27.9788 28.7427 28.2843 28.469 28.5353C28.1954 28.7863 27.8724 28.9775 27.5206 29.0964C27.1688 29.2154 26.7961 29.2596 26.4263 29.2261C22.3234 28.7803 18.3823 27.3783 14.9196 25.1328C11.698 23.0857 8.9667 20.3544 6.91959 17.1328C4.66622 13.6544 3.26391 9.69414 2.82625 5.57281C2.79293 5.2041 2.83675 4.83249 2.95492 4.48164C3.07309 4.1308 3.26301 3.8084 3.51261 3.53497C3.7622 3.26155 4.06599 3.04309 4.40464 2.89351C4.74329 2.74392 5.10937 2.66649 5.47959 2.66614H9.47959C10.1267 2.65978 10.754 2.88892 11.2446 3.31086C11.7352 3.73279 12.0557 4.31874 12.1463 4.95948C12.3151 6.23957 12.6282 7.49645 13.0796 8.70615C13.259 9.18338 13.2978 9.70203 13.1915 10.2007C13.0851 10.6993 12.8381 11.157 12.4796 11.5195L10.7863 13.2128C12.6843 16.5509 15.4482 19.3147 18.7863 21.2128L20.4796 19.5195C20.8421 19.161 21.2998 18.9139 21.7984 18.8076C22.297 18.7013 22.8157 18.7401 23.2929 18.9195C24.5026 19.3709 25.7595 19.684 27.0396 19.8528C27.6873 19.9442 28.2788 20.2704 28.7016 20.7695C29.1245 21.2685 29.3491 21.9056 29.3329 22.5595Z" stroke="#2E4D6C" stroke-width="2" stroke-linecap="round" stroke-linejoin="round"/>
</svg>
