<svg width="20" height="16" viewBox="0 0 20 16" fill="none" xmlns="http://www.w3.org/2000/svg">
<path d="M19.5 1.85567C18.7875 2.18557 18.0354 2.39175 17.2437 2.51546C18.0354 2.02062 18.6688 1.23711 18.9458 0.28866C18.1938 0.742268 17.3625 1.07216 16.4521 1.27835C15.7396 0.494845 14.7104 0 13.6021 0C11.4646 0 9.72292 1.81443 9.72292 4.04124C9.72292 4.37113 9.7625 4.65979 9.84167 4.94845C6.63542 4.7835 3.74583 3.17526 1.80625 0.701031C1.48958 1.31959 1.29167 1.97938 1.29167 2.72165C1.29167 4.12371 1.96458 5.36082 3.03333 6.10309C2.4 6.06185 1.80625 5.89691 1.25208 5.60825V5.64948C1.25208 7.62886 2.59792 9.27835 4.37917 9.64948C4.0625 9.73196 3.70625 9.77319 3.35 9.77319C3.1125 9.77319 2.83542 9.73196 2.59792 9.69072C3.1125 11.299 4.5375 12.4948 6.23958 12.4948C4.89375 13.567 3.23125 14.2268 1.41042 14.2268C1.09375 14.2268 0.777083 14.2268 0.5 14.1856C2.24167 15.3402 4.26042 16 6.47708 16C13.6417 16 17.5604 9.81443 17.5604 4.45361C17.5604 4.28866 17.5604 4.08247 17.5604 3.91753C18.3125 3.38144 18.9854 2.68041 19.5 1.85567Z" fill="#01254A"/>
</svg>
