<svg width="22" height="23" viewBox="0 0 22 23" fill="none" xmlns="http://www.w3.org/2000/svg">
<path d="M0.443237 17.03V17.0322C0.443237 17.033 0.443695 17.0336 0.443695 17.0344C0.445757 18.2729 1.29252 19.3073 2.43446 19.6171C2.69777 21.5226 4.32036 23 6.29712 23H11C11.4142 23 11.75 22.6642 11.75 22.25C11.75 21.8358 11.4142 21.5 11 21.5H6.29712C5.13682 21.5 4.16654 20.6777 3.93455 19.5856C5.02586 19.2423 5.8247 18.2332 5.8247 17.03V12.734C5.8247 11.2505 4.61766 10.0435 3.13378 10.0435C2.71964 10.0435 2.33168 10.1453 1.9809 10.3132C2.36126 5.66659 6.25697 2 11 2C13.413 2 15.6879 2.94226 17.4036 4.65137C18.9375 6.19156 19.8474 8.18032 20.0205 10.314C19.6693 10.1456 19.281 10.0435 18.8662 10.0435C17.3823 10.0435 16.1753 11.2505 16.1753 12.734V17.03C16.1753 18.5139 17.3823 19.7209 18.8662 19.7209C20.3482 19.7209 21.5538 18.5163 21.5563 17.0344C21.5563 17.0336 21.5568 17.033 21.5568 17.0322V17.03V11.0568C21.5568 8.24426 20.4592 5.59363 18.4641 3.59082C16.4631 1.59753 13.8125 0.5 11 0.5C5.17908 0.5 0.443237 5.23584 0.443237 11.0568V17.03ZM18.8662 18.2209C18.2096 18.2209 17.6753 17.6866 17.6753 17.03V12.734C17.6753 12.0774 18.2096 11.5435 18.8662 11.5435C19.5228 11.5435 20.0568 12.0774 20.0568 12.734V17.03C20.0568 17.6866 19.5228 18.2209 18.8662 18.2209ZM3.13379 11.5435C3.79041 11.5435 4.32471 12.0774 4.32471 12.734V17.03C4.32471 17.6866 3.79041 18.2209 3.13379 18.2209C2.47717 18.2209 1.94324 17.6866 1.94324 17.03V12.734C1.94324 12.0774 2.47717 11.5435 3.13379 11.5435Z" fill="#E4EDF5"/>
</svg>
